User Type,Username,Date,Text
,jaycup,2008-01-01T16:16Z,track 4 isnt dj friendly remix its the infinitize remix
,kbowk2,2008-08-15T09:25Z,"Tracks not split.  Why?  This always happens with GU torrents.  I must agree it is highly annoying.  When I rip CDs, I find it easier to to make separate tracks anyway.  Cheers for torrent thou."
,merdzd,2008-12-26T17:18Z,"split with cue 

PERFORMER ""Global Underground""
TITLE ""Synchonized 2""
FILE ""Global Underground - Synchonized 2.mp3"" MP3
  TRACK 01 AUDIO
    PERFORMER ""Metro Area""
    TITLE ""Proton Candy""
    INDEX 01 00:00:00
  TRACK 02 AUDIO
    PERFORMER ""Anil Chawla and Dale Anderson""
    TITLE ""Pecunia (Re Edit)""
    INDEX 01 05:47:00
  TRACK 03 AUDIO
    PERFORMER ""Paco and Frederik""
    TITLE ""Mexico Can Wait (Dj Friendly remix)""
    INDEX 01 08:49:00
  TRACK 04 AUDIO
    PERFORMER ""Roland Klinkenberg""
    TITLE ""In Love (Original mix)""
    INDEX 01 12:51:00
  TRACK 05 AUDIO
    PERFORMER ""Jay Lumen""
    TITLE ""A Broken Frame (V4 mix)""
    INDEX 01 17:51:00
  TRACK 06 AUDIO
    PERFORMER ""Andrew Bennet pres Memento""
    TITLE ""37 Grad (Original mix)""
    INDEX 01 24:47:00
  TRACK 07 AUDIO
    PERFORMER ""Oliver Huntemann""
    TITLE ""Monsters of the Deep (Dubfunk Twisted Mix)""
    INDEX 01 29:19:00
  TRACK 08 AUDIO
    PERFORMER ""Eelke Kleijn""
    TITLE ""Jade (Original mix)""
    INDEX 01 32:19:00
  TRACK 09 AUDIO
    PERFORMER ""Adam Freeland""
    TITLE ""Silverlake Pills (The Last Atlant remix)""
    INDEX 01 40:08:00
  TRACK 10 AUDIO
    PERFORMER ""Oliver Moldan""
    TITLE ""Five Five Zero (Original mix)""
    INDEX 01 46:01:00
  TRACK 11 AUDIO
    PERFORMER ""Felipe and Nicolas Bacher""
    TITLE ""Manitou (Original mix)""
    INDEX 01 51:41:00
  TRACK 12 AUDIO
    PERFORMER ""Talisman and Hudson""
    TITLE ""Leaving Planet Earth (Eelke Kleijn remix)""
    INDEX 01 57:54:00
  TRACK 13 AUDIO
    PERFORMER ""The Remote""
    TITLE ""Like You (Thugfuckker Instrumental Reprise)""
    INDEX 01 64:04:00
  TRACK 14 AUDIO
    INDEX 01 71:00:00"
